<svg viewBox="0 0 640 640"><path d="M250 319H64l137-49z" fill="#91CBF8"/><path d="m250 319-49-49 49-137z" fill="#B5DCFB"/><path d="M250 319V133l49 137z" fill="#91CBF8"/><path d="m250 319 49-49 137 49z" fill="#B5DCFB"/><path d="M250 319h186l-137 49z" fill="#91CBF8"/><path d="m250 319 49 49-49 137z" fill="#B5DCFB"/><path d="M250 319v186l-49-137z" fill="#91CBF8"/><path d="m250 319-49 49-137-49z" fill="#B5DCFB"/><path d="M462 177H349l83-30z" fill="#91CBF8"/><path d="m462 177-30-30 30-83z" fill="#B5DCFB"/><path d="M462 177V64l30 83z" fill="#91CBF8"/><path d="m462 177 30-30 83 30z" fill="#B5DCFB"/><path d="M462 177h113l-83 30z" fill="#91CBF8"/><path d="m462 177 30 30-30 83z" fill="#B5DCFB"/><path d="M462 177v113l-30-83z" fill="#91CBF8"/><path d="m462 177-30 30-83-30z" fill="#B5DCFB"/><path d="M462 462H349l83-30z" fill="#91CBF8"/><path d="m462 462-30-30 30-83z" fill="#B5DCFB"/><path d="M462 462V349l30 83z" fill="#91CBF8"/><path d="m462 462 30-30 83 30z" fill="#B5DCFB"/><path d="M462 462h113l-83 30z" fill="#91CBF8"/><path d="m462 462 30 30-30 83z" fill="#B5DCFB"/><path d="M462 462v113l-30-83z" fill="#91CBF8"/><path d="m462 462-30 30-83-30z" fill="#B5DCFB"/></svg>