<svg xmlns="http://www.w3.org/2000/svg" xmlns:xlink="http://www.w3.org/1999/xlink" viewBox="0 0 345.12 147.62"><defs><style>.cls-1{fill:#0a5896;}.cls-2{fill:url(#Naamloos_verloop_59);}.cls-3{fill:url(#Naamloos_verloop_105);}.cls-4{fill:url(#Naamloos_verloop_13);}.cls-5{fill:#00b1eb;}</style><radialGradient id="Naamloos_verloop_59" cx="401.73" cy="231.08" r="152.6" gradientUnits="userSpaceOnUse"><stop offset="0.5" stop-color="#00b1eb"/><stop offset="1" stop-color="#223c7e"/></radialGradient><radialGradient id="Naamloos_verloop_105" cx="316.39" cy="268.43" fx="292.3276436369966" r="188.3" gradientTransform="translate(726.25 -66.24) rotate(87.49) scale(1 1.58)" gradientUnits="userSpaceOnUse"><stop offset="0" stop-color="#f39200"/><stop offset="0.03" stop-color="#d99519"/><stop offset="0.12" stop-color="#8d9f63"/><stop offset="0.2" stop-color="#50a79d"/><stop offset="0.27" stop-color="#25acc7"/><stop offset="0.32" stop-color="#0ab0e1"/><stop offset="0.35" stop-color="#00b1eb"/><stop offset="0.5" stop-color="#01aee8"/><stop offset="0.62" stop-color="#04a4df"/><stop offset="0.72" stop-color="#0993cf"/><stop offset="0.82" stop-color="#0f7cba"/><stop offset="0.92" stop-color="#185e9e"/><stop offset="1" stop-color="#223c7e"/></radialGradient><radialGradient id="Naamloos_verloop_13" cx="388.57" cy="316.92" fx="382.2529486227155" r="49.46" gradientTransform="matrix(0.04, 1, -1.58, 0.06, 874.83, -89.63)" gradientUnits="userSpaceOnUse"><stop offset="0.16" stop-color="#00b1eb"/><stop offset="0.43" stop-color="#0a8fcb"/><stop offset="1" stop-color="#223c7e"/></radialGradient></defs><title>#WDOD_logo_UW_CMYK_PC FRIENDLY</title><g id="logo"><g id="_Groep_" data-name="&lt;Groep&gt;"><g id="_Groep_2" data-name="&lt;Groep&gt;"><path id="_Samengesteld_pad_" data-name="&lt;Samengesteld pad&gt;" class="cls-1" d="M429.31,257.94a42.61,42.61,0,0,1-.35,6.67c-.47,3.65-2.71,6.83-10,6.83h-6.79c-1.75,0-2.52-.47-2.52-2.21v-22c0-1.78.78-2.21,2.52-2.21h6.79c7.33,0,9.58,3.18,10,6.83A38.79,38.79,0,0,1,429.31,257.94Zm-5.82.31a33.47,33.47,0,0,0-.39-6.13c-.19-1.32-1.51-2-4.19-2h-3.61V266.4h3.61c2.68,0,4-.7,4.19-2.06A32.75,32.75,0,0,0,423.49,258.25Z" transform="translate(-263.13 -245)"/><path id="_Pad_" data-name="&lt;Pad&gt;" class="cls-1" d="M445.05,252h-.5a5.85,5.85,0,0,0-5.47,3.49l-.19-1.55c-.19-1.12-.81-1.94-1.94-1.94h-3.41c-1,0-1.71.35-1.71,1.9v1.24c0,1.55.74,1.9,1.71,1.9h.62v12.14c0,1.75.78,2.21,2.52,2.21h.62c1.75,0,2.56-.47,2.56-2.21V260a5.47,5.47,0,0,1,4.46-2.83l.54,0c1.44-.19,2.17-.78,2.17-2.37v-.43C447,252.4,446.3,252,445.05,252Z" transform="translate(-263.13 -245)"/><path id="_Samengesteld_pad_2" data-name="&lt;Samengesteld pad&gt;" class="cls-1" d="M464.8,268.15v.35a2.26,2.26,0,0,1-1.51,2.25,19.45,19.45,0,0,1-6.44,1c-6.71,0-7.68-3.06-7.91-5.12a37.41,37.41,0,0,1-.19-4.19,49.75,49.75,0,0,1,.19-5.62c.23-2.13,1.32-5.08,8-5.08,5.82,0,8,2.33,8,6.05,0,3.06-1.24,4.65-3.14,5.31a27,27,0,0,1-7,.74h-.15c0,.93.12,1.55.15,1.9.16.74.62,1.16,2.29,1.16a35.57,35.57,0,0,0,5.74-.74C464.1,265.93,464.8,266.79,464.8,268.15Zm-10.12-10.4a18.19,18.19,0,0,0-.15,2.33h.12a26.19,26.19,0,0,0,4.38-.23,1.36,1.36,0,0,0,1-1.55c0-1.2-.62-1.71-3.18-1.71C455.14,256.59,454.79,257.09,454.67,257.75Z" transform="translate(-263.13 -245)"/><path id="_Samengesteld_pad_3" data-name="&lt;Samengesteld pad&gt;" class="cls-1" d="M484.07,260.23v9c0,1.75-.78,2.21-2.52,2.21h-.62c-1.78,0-2.56-.47-2.56-2.21v-8.88a14.64,14.64,0,0,0-.23-2.48c-.12-.5-.62-1-2-1a3.87,3.87,0,0,0-2.56.89v11.44c0,1.75-.78,2.21-2.52,2.21h-.62c-1.78,0-2.56-.47-2.56-2.21V254.38c0-1.78.27-2,2.09-2.44,1.09-.23,2.91-.62,3.06,1.28l0,.74a6.9,6.9,0,0,1,5.12-2.21c4.38,0,5.43,3,5.74,5.12A24,24,0,0,1,484.07,260.23Z" transform="translate(-263.13 -245)"/><path id="_Samengesteld_pad_4" data-name="&lt;Samengesteld pad&gt;" class="cls-1" d="M488,266.36a20.18,20.18,0,0,1-.19-3.1V249.33a1.84,1.84,0,0,1,1.71-2l1.9-.39a1.59,1.59,0,0,1,2.09,1.71V252h3.33c1,0,1.71.35,1.71,1.9v1.24c0,1.55-.74,1.9-1.71,1.9h-3.33v5.55a13.21,13.21,0,0,0,.27,3.3c.12.39.5.93,1.71.93a11.47,11.47,0,0,0,2.44-.27c1.32-.27,2.09.12,2.09,1.82v.31a2.07,2.07,0,0,1-1.43,2.17,14,14,0,0,1-4.65.85C490.7,271.75,488.45,270.16,488,266.36Z" transform="translate(-263.13 -245)"/><path id="_Samengesteld_pad_5" data-name="&lt;Samengesteld pad&gt;" class="cls-1" d="M503.61,270.74a2.26,2.26,0,0,1-1.51-2.25v-.35c0-1.44.81-2.21,2.09-2a31.45,31.45,0,0,0,5.74.74c1.47,0,2-.35,2-1s-.39-.93-2-1.47c-1.12-.39-1.59-.58-2.33-.81-4.69-1.51-5.55-3.68-5.55-6,0-3.72,2.95-5.86,7.8-5.86a19.24,19.24,0,0,1,6,.89c1.63.54,2,1.2,1.82,2.64s-.7,2.25-2.87,1.94a38.68,38.68,0,0,0-4.34-.54c-1.86-.16-2.64.27-2.75,1-.19,1,2.09,1.55,4.31,2.37,4.11,1.4,5.86,3,5.86,6.09,0,4.27-3.18,5.62-7.83,5.62A18.22,18.22,0,0,1,503.61,270.74Z" transform="translate(-263.13 -245)"/><path id="_Samengesteld_pad_6" data-name="&lt;Samengesteld pad&gt;" class="cls-1" d="M430.24,292.26a45.4,45.4,0,0,1-.35,6.67c-.46,3.65-2.71,6.83-10.08,6.83s-9.58-3.18-10-6.83a64,64,0,0,1,0-13.34c.47-3.65,2.71-6.83,10-6.83s9.62,3.18,10.08,6.83A45,45,0,0,1,430.24,292.26Zm-5.82,0a46,46,0,0,0-.39-6.44c-.19-1.32-1.51-2-4.23-2s-4,.7-4.19,2a36.46,36.46,0,0,0-.39,6.44,36,36,0,0,0,.39,6.4c.19,1.36,1.51,2,4.19,2.06s4-.7,4.23-2.06A45.37,45.37,0,0,0,424.42,292.26Z" transform="translate(-263.13 -245)"/><path id="_Pad_2" data-name="&lt;Pad&gt;" class="cls-1" d="M447.3,286.05h-.62c-1.75,0-2.52.43-2.52,2.21v4c0,2-.19,2.68-1.28,5.31a24.19,24.19,0,0,1-1.32,2.48,14.09,14.09,0,0,1-1.36-2.48c-1.09-2.72-1.2-3.34-1.2-5.31v-4c0-1.78-.78-2.21-2.56-2.21h-.62c-1.75,0-2.52.43-2.52,2.21v3.06a13.76,13.76,0,0,0,1.78,7.6c3.34,5.9,4.58,6.83,6.48,6.83s3.14-.93,6.52-6.83a13.76,13.76,0,0,0,1.78-7.6v-3.06C449.86,286.48,449,286.05,447.3,286.05Z" transform="translate(-263.13 -245)"/><path id="_Samengesteld_pad_7" data-name="&lt;Samengesteld pad&gt;" class="cls-1" d="M468.21,302.15v.35a2.26,2.26,0,0,1-1.51,2.25,19.46,19.46,0,0,1-6.44,1c-6.71,0-7.68-3.06-7.91-5.12a37.41,37.41,0,0,1-.19-4.19,49.75,49.75,0,0,1,.19-5.62c.23-2.13,1.32-5.08,8-5.08,5.82,0,8,2.33,8,6.05,0,3.06-1.24,4.65-3.14,5.31a27,27,0,0,1-7,.74h-.15c0,.93.12,1.55.15,1.9.16.74.62,1.16,2.29,1.16a35.57,35.57,0,0,0,5.74-.74C467.51,299.94,468.21,300.79,468.21,302.15Zm-10.12-10.4a18.21,18.21,0,0,0-.15,2.33H458a26.2,26.2,0,0,0,4.38-.23,1.36,1.36,0,0,0,1-1.55c0-1.2-.62-1.71-3.18-1.71C458.55,290.59,458.2,291.09,458.08,291.75Z" transform="translate(-263.13 -245)"/><path id="_Pad_3" data-name="&lt;Pad&gt;" class="cls-1" d="M483.91,286.05h-.5a5.85,5.85,0,0,0-5.47,3.49l-.19-1.55c-.19-1.12-.81-1.94-1.94-1.94h-3.41c-1,0-1.71.35-1.71,1.9v1.24c0,1.55.74,1.9,1.71,1.9H473v12.14c0,1.75.78,2.21,2.52,2.21h.62c1.75,0,2.56-.47,2.56-2.21V294a5.47,5.47,0,0,1,4.46-2.83l.54,0c1.44-.19,2.17-.78,2.17-2.37v-.43C485.89,286.4,485.15,286.05,483.91,286.05Z" transform="translate(-263.13 -245)"/><path id="_Samengesteld_pad_8" data-name="&lt;Samengesteld pad&gt;" class="cls-1" d="M496.05,288v15.24c0,1.75-.78,2.21-2.52,2.21h-.62c-1.78,0-2.56-.47-2.56-2.21V291.09h-.58c-1,0-1.75-.35-1.75-1.9V288c0-1.55.78-1.9,1.75-1.9h4.38A1.87,1.87,0,0,1,496.05,288ZM490,280.93q0-3.14,3.14-3.14c2,0,3.06,1,3.06,3.14a2.81,2.81,0,0,1-3.06,3.1C491,284,490,283,490,280.93Z" transform="translate(-263.13 -245)"/><g id="_Groep_3" data-name="&lt;Groep&gt;"><path id="_Pad_4" data-name="&lt;Pad&gt;" class="cls-1" d="M502.53,284a2.78,2.78,0,0,0,3.06-3.06c0-2.13-1-3.14-3.06-3.14s-3.06,1-3.06,3.14S500.47,284,502.53,284Z" transform="translate(-263.13 -245)"/><path id="_Pad_5" data-name="&lt;Pad&gt;" class="cls-1" d="M502.88,286.05h-.62c-1.75,0-2.52.43-2.52,2.21v17.69a5.53,5.53,0,0,1-.74,2.87L497.75,311a2.11,2.11,0,0,0,.85,2.83l.35.23a1.94,1.94,0,0,0,2.83-.16l2.13-2.56a7.61,7.61,0,0,0,1.51-5.2V288.26C505.44,286.48,504.66,286.05,502.88,286.05Z" transform="translate(-263.13 -245)"/></g><path id="_Samengesteld_pad_9" data-name="&lt;Samengesteld pad&gt;" class="cls-1" d="M510.13,304.75a2.26,2.26,0,0,1-1.51-2.25v-.35c0-1.44.81-2.21,2.09-2a31.46,31.46,0,0,0,5.74.74c1.47,0,2-.35,2-1s-.39-.93-2-1.47c-1.12-.39-1.59-.58-2.33-.81-4.69-1.51-5.55-3.68-5.55-6,0-3.72,2.95-5.86,7.8-5.86a19.27,19.27,0,0,1,6,.89c1.63.54,2,1.2,1.82,2.64s-.7,2.25-2.87,1.94a38.66,38.66,0,0,0-4.34-.54c-1.86-.16-2.64.27-2.75,1-.19,1,2.09,1.55,4.3,2.37,4.11,1.4,5.86,3,5.86,6.09,0,4.27-3.18,5.62-7.83,5.62A18.22,18.22,0,0,1,510.13,304.75Z" transform="translate(-263.13 -245)"/><path id="_Samengesteld_pad_10" data-name="&lt;Samengesteld pad&gt;" class="cls-1" d="M528.35,304.75a2.26,2.26,0,0,1-1.51-2.25v-.35c0-1.44.81-2.21,2.09-2a31.47,31.47,0,0,0,5.74.74c1.47,0,2-.35,2-1s-.39-.93-2-1.47c-1.12-.39-1.59-.58-2.33-.81-4.69-1.51-5.55-3.68-5.55-6,0-3.72,2.95-5.86,7.8-5.86a19.27,19.27,0,0,1,6,.89c1.63.54,2,1.2,1.82,2.64s-.7,2.25-2.87,1.94a38.66,38.66,0,0,0-4.34-.54c-1.86-.16-2.64.27-2.75,1-.19,1,2.09,1.55,4.3,2.37,4.11,1.4,5.86,3,5.86,6.09,0,4.27-3.18,5.62-7.83,5.62A18.21,18.21,0,0,1,528.35,304.75Z" transform="translate(-263.13 -245)"/><path id="_Samengesteld_pad_11" data-name="&lt;Samengesteld pad&gt;" class="cls-1" d="M561.51,302.15v.35a2.26,2.26,0,0,1-1.51,2.25,19.46,19.46,0,0,1-6.44,1c-6.71,0-7.68-3.06-7.91-5.12a37.41,37.41,0,0,1-.19-4.19,49.75,49.75,0,0,1,.19-5.62c.23-2.13,1.32-5.08,8-5.08,5.82,0,8,2.33,8,6.05,0,3.06-1.24,4.65-3.14,5.31a27.05,27.05,0,0,1-7,.74h-.16c0,.93.12,1.55.16,1.9.16.74.62,1.16,2.29,1.16a35.58,35.58,0,0,0,5.74-.74C560.82,299.94,561.51,300.79,561.51,302.15Zm-10.12-10.4a18.15,18.15,0,0,0-.16,2.33h.12a26.2,26.2,0,0,0,4.38-.23,1.36,1.36,0,0,0,1-1.55c0-1.2-.62-1.71-3.18-1.71C551.86,290.59,551.51,291.09,551.39,291.75Z" transform="translate(-263.13 -245)"/><path id="_Samengesteld_pad_12" data-name="&lt;Samengesteld pad&gt;" class="cls-1" d="M570.36,281.28v22c0,1.75-.78,2.21-2.56,2.21h-.62c-1.75,0-2.52-.47-2.52-2.21v-22c0-1.78.78-2.21,2.52-2.21h.62C569.58,279.07,570.36,279.5,570.36,281.28Z" transform="translate(-263.13 -245)"/><path id="_Samengesteld_pad_13" data-name="&lt;Samengesteld pad&gt;" class="cls-1" d="M575,304.75a2.26,2.26,0,0,1-1.51-2.25v-.35c0-1.44.81-2.21,2.09-2a31.44,31.44,0,0,0,5.74.74c1.47,0,2-.35,2-1s-.39-.93-2-1.47c-1.12-.39-1.59-.58-2.33-.81-4.69-1.51-5.55-3.68-5.55-6,0-3.72,2.95-5.86,7.8-5.86a19.27,19.27,0,0,1,6,.89c1.63.54,2,1.2,1.82,2.64s-.7,2.25-2.87,1.94a38.65,38.65,0,0,0-4.34-.54c-1.86-.16-2.64.27-2.75,1-.19,1,2.09,1.55,4.31,2.37,4.11,1.4,5.86,3,5.86,6.09,0,4.27-3.18,5.62-7.83,5.62A18.22,18.22,0,0,1,575,304.75Z" transform="translate(-263.13 -245)"/><path id="_Samengesteld_pad_14" data-name="&lt;Samengesteld pad&gt;" class="cls-1" d="M608.21,302.15v.35a2.26,2.26,0,0,1-1.51,2.25,19.46,19.46,0,0,1-6.44,1c-6.71,0-7.68-3.06-7.91-5.12a37.41,37.41,0,0,1-.19-4.19,49.73,49.73,0,0,1,.19-5.62c.23-2.13,1.32-5.08,8-5.08,5.82,0,8,2.33,8,6.05,0,3.06-1.24,4.65-3.14,5.31a27,27,0,0,1-7,.74h-.15c0,.93.12,1.55.15,1.9.16.74.62,1.16,2.29,1.16a35.56,35.56,0,0,0,5.74-.74C607.51,299.94,608.21,300.79,608.21,302.15Zm-10.12-10.4a18.23,18.23,0,0,0-.15,2.33H598a26.21,26.21,0,0,0,4.38-.23,1.36,1.36,0,0,0,1-1.55c0-1.2-.62-1.71-3.18-1.71C598.55,290.59,598.2,291.09,598.08,291.75Z" transform="translate(-263.13 -245)"/><path id="_Samengesteld_pad_15" data-name="&lt;Samengesteld pad&gt;" class="cls-1" d="M429.31,326a42.64,42.64,0,0,1-.35,6.67c-.47,3.65-2.71,6.83-10,6.83h-6.79c-1.75,0-2.52-.47-2.52-2.21v-22c0-1.78.78-2.21,2.52-2.21h6.79c7.33,0,9.58,3.18,10,6.83A38.79,38.79,0,0,1,429.31,326Zm-5.82.31a33.47,33.47,0,0,0-.39-6.13c-.19-1.32-1.51-2-4.19-2h-3.61v16.29h3.61c2.68,0,4-.7,4.19-2.06A32.75,32.75,0,0,0,423.49,326.26Z" transform="translate(-263.13 -245)"/><path id="_Samengesteld_pad_16" data-name="&lt;Samengesteld pad&gt;" class="cls-1" d="M448.66,336.15v.35a2.26,2.26,0,0,1-1.51,2.25,19.46,19.46,0,0,1-6.44,1c-6.71,0-7.68-3.06-7.91-5.12a37.41,37.41,0,0,1-.19-4.19,49.73,49.73,0,0,1,.19-5.62c.23-2.13,1.32-5.08,8-5.08,5.82,0,8,2.33,8,6.05,0,3.06-1.24,4.65-3.14,5.31a27.05,27.05,0,0,1-7,.74h-.16c0,.93.12,1.55.16,1.9.16.74.62,1.16,2.29,1.16a35.58,35.58,0,0,0,5.74-.74C448,333.94,448.66,334.79,448.66,336.15Zm-10.12-10.4a18.16,18.16,0,0,0-.16,2.33h.12a26.2,26.2,0,0,0,4.38-.23,1.36,1.36,0,0,0,1-1.55c0-1.2-.62-1.71-3.18-1.71C439,324.59,438.65,325.1,438.54,325.76Z" transform="translate(-263.13 -245)"/><path id="_Samengesteld_pad_17" data-name="&lt;Samengesteld pad&gt;" class="cls-1" d="M457.5,315.28v22c0,1.75-.78,2.21-2.56,2.21h-.62c-1.75,0-2.52-.47-2.52-2.21v-22c0-1.78.78-2.21,2.52-2.21h.62C456.73,313.07,457.5,313.5,457.5,315.28Z" transform="translate(-263.13 -245)"/><path id="_Samengesteld_pad_18" data-name="&lt;Samengesteld pad&gt;" class="cls-1" d="M461.3,334.37a20.19,20.19,0,0,1-.19-3.1V317.34a1.84,1.84,0,0,1,1.71-2l1.9-.39a1.59,1.59,0,0,1,2.09,1.71v3.41h3.33c1,0,1.71.35,1.71,1.9v1.24c0,1.55-.74,1.9-1.71,1.9h-3.33v5.55a13.21,13.21,0,0,0,.27,3.3c.12.39.5.93,1.71.93a11.47,11.47,0,0,0,2.44-.27c1.32-.27,2.09.12,2.09,1.82v.31a2.07,2.07,0,0,1-1.43,2.17,14,14,0,0,1-4.65.85C464,339.76,461.77,338.17,461.3,334.37Z" transform="translate(-263.13 -245)"/><path id="_Samengesteld_pad_19" data-name="&lt;Samengesteld pad&gt;" class="cls-1" d="M491.32,339.14c-1.78,1-2.91.81-3.88-.93l-.27-.74H487a6.77,6.77,0,0,1-5.47,2.29c-4,0-6.21-2.09-6.21-6,0-4.93,3.37-5.93,8.26-5.93h2.56V327c0-1-.12-1.63-1.28-2.06a7.44,7.44,0,0,0-2.75-.39,16.21,16.21,0,0,0-2.75.23c-1.86.12-2.29-.66-2.29-2v-.12a2.14,2.14,0,0,1,1.86-2.41,17.82,17.82,0,0,1,4.73-.54c7.37,0,8.22,3.14,8.22,8.18v6.59l.58,2.37C492.76,338.05,492.41,338.44,491.32,339.14Zm-5.2-7.45h-2.06c-2.29,0-3.06.54-3.06,1.63,0,1.24.7,1.75,2.09,1.75C485,335.07,486.12,334,486.12,331.69Z" transform="translate(-263.13 -245)"/></g><g id="_Groep_4" data-name="&lt;Groep&gt;"><g id="_Groep_5" data-name="&lt;Groep&gt;"><path id="_Pad_6" data-name="&lt;Pad&gt;" class="cls-2" d="M354.77,302.2a2.35,2.35,0,0,0-3.17-1l-.06,0a11.14,11.14,0,0,1-12.87-1.78l-6.93-6.72a23,23,0,0,0-31.8,0L293,299.46a11.07,11.07,0,0,1-15.31,0l-5-4.92a4.25,4.25,0,0,0-6,.09L264.33,297a4.25,4.25,0,0,0,.09,6l5,4.92a23,23,0,0,0,31.8,0l6.93-6.72a11.09,11.09,0,0,1,15.31,0l6.93,6.72a23.11,23.11,0,0,0,26.67,3.74h0a2.35,2.35,0,0,0,1-3.15Z" transform="translate(-263.13 -245)"/></g></g><path id="_Pad_7" data-name="&lt;Pad&gt;" class="cls-3" d="M355.12,289.46h0a10.66,10.66,0,0,0-10.66-10.66H316.12a5.92,5.92,0,0,1-5.92-5.92V250.93a5.92,5.92,0,0,1,5.92-5.92h39a30.77,30.77,0,0,1,30.77,30.77v32.9a30.77,30.77,0,0,1-30.77,30.77H342.53a25.48,25.48,0,0,1-17.84-7.24l-11-10.71a4.25,4.25,0,0,1-.08-6l2.32-2.39a4.25,4.25,0,0,1,6-.08l10.93,10.69a13.7,13.7,0,0,0,9.6,3.89h12.62a18.92,18.92,0,0,0,18.92-18.92v-32.9a18.92,18.92,0,0,0-18.92-18.92H322v10.1h22.41A22.51,22.51,0,0,1,367,289.46h0a2.76,2.76,0,0,1-2.76,2.76h-6.31A2.76,2.76,0,0,1,355.12,289.46Z" transform="translate(-263.13 -245)"/><path id="_Pad_8" data-name="&lt;Pad&gt;" class="cls-4" d="M324.69,332.2a25.48,25.48,0,0,0,17.84,7.24h12.62a30.77,30.77,0,0,0,30.77-30.77H374.07a18.92,18.92,0,0,1-18.92,18.92H342.53a13.7,13.7,0,0,1-9.6-3.89L322,313a4.25,4.25,0,0,0-6,.08l-2.32,2.39a4.25,4.25,0,0,0,.08,6" transform="translate(-263.13 -245)"/></g></g><g id="UW_OL" data-name="UW OL"><path class="cls-5" d="M339.16,383.73V375.4c0-1-.46-1.25-1.43-1.25h-.36c-1,0-1.43.26-1.43,1.25v8.05a2.71,2.71,0,0,1-2.15.95c-1.2,0-1.56-.49-1.66-.87a10.48,10.48,0,0,1-.15-2V375.4c0-1-.43-1.25-1.43-1.25h-.36c-1,0-1.43.26-1.43,1.25v6.13a20,20,0,0,0,.13,2.22c.18,1.46.84,3.37,3.88,3.37a4.21,4.21,0,0,0,3.6-1.71v.05l-.05,0h.18l.23.77a1.31,1.31,0,0,0,2.15.54c.61-.36.84-.59.69-1.3Z" transform="translate(-263.13 -245)"/><path class="cls-5" d="M357.34,374.15H357c-1,0-1.43.26-1.43,1.25v2.22a11.37,11.37,0,0,1-1,4.27c-.61,1.51-.82,1.89-1,1.89s-.38-.38-1-1.89a10.53,10.53,0,0,1-.87-4.27V375.4c0-1-.41-1.25-1.28-1.25H350c-.89,0-1.28.26-1.28,1.25v2.22a10.12,10.12,0,0,1-.87,4.27c-.61,1.51-.82,1.89-1,1.89s-.41-.38-1-1.89a11.35,11.35,0,0,1-1-4.27V375.4c0-1-.46-1.25-1.43-1.25H343c-1,0-1.43.26-1.43,1.25v2.22a9.37,9.37,0,0,0,1.2,5c1.71,3.78,2.58,4.5,3.88,4.5.87,0,1.3-.49,2.4-2.35a22.79,22.79,0,0,0,1.1-2,22.81,22.81,0,0,0,1.1,2c1.1,1.87,1.53,2.35,2.4,2.35,1.15,0,2-.72,3.88-4.5a9.37,9.37,0,0,0,1.2-5V375.4C358.77,374.4,358.34,374.15,357.34,374.15Z" transform="translate(-263.13 -245)"/><path class="cls-5" d="M382.8,374.15h-.36c-1,0-1.43.26-1.43,1.25v2.22a11.37,11.37,0,0,1-1,4.27c-.61,1.51-.82,1.89-1,1.89s-.38-.38-1-1.89a10.53,10.53,0,0,1-.87-4.27V375.4c0-1-.41-1.25-1.28-1.25h-.31c-.89,0-1.28.26-1.28,1.25v2.22a10.12,10.12,0,0,1-.87,4.27c-.61,1.51-.82,1.89-1,1.89s-.41-.38-1-1.89a11.35,11.35,0,0,1-1-4.27V375.4c0-1-.46-1.25-1.43-1.25h-.36c-1,0-1.43.26-1.43,1.25v2.22a9.37,9.37,0,0,0,1.2,5c1.71,3.78,2.58,4.5,3.88,4.5.87,0,1.3-.49,2.4-2.35a22.81,22.81,0,0,0,1.1-2,22.78,22.78,0,0,0,1.1,2c1.1,1.87,1.53,2.35,2.4,2.35,1.15,0,2-.72,3.88-4.5a9.37,9.37,0,0,0,1.2-5V375.4C384.23,374.4,383.79,374.15,382.8,374.15Z" transform="translate(-263.13 -245)"/><path class="cls-5" d="M396.86,383.86v-4.7c0-3-.49-5.21-5.26-5.21a11.77,11.77,0,0,0-3.14.38,1.25,1.25,0,0,0-1.07,1.41v.08c0,.77.28,1.18,1.33,1.1a9.87,9.87,0,0,1,2.07-.23,4,4,0,0,1,2,.38c.74.33.79.87.82,1.64v.64h-1.84c-3.45,0-5.5.82-5.5,3.94,0,2.58,1.46,3.86,4,3.86a4.61,4.61,0,0,0,3.78-1.66h.08l.28.77c.43,1,1.18,1.12,2.15.54.64-.36.82-.59.67-1.3Zm-3.25-2.15c0,2-.95,2.74-2.43,2.74-1.12,0-1.71-.33-1.71-1.46,0-.92.79-1.3,2.45-1.3h1.69Z" transform="translate(-263.13 -245)"/><path class="cls-5" d="M406.14,384.14a8.21,8.21,0,0,1-1.71.23c-1,0-1.33-.46-1.43-.84a9.91,9.91,0,0,1-.2-2.33V377h2.45c.59,0,1-.2,1-1.07v-.66c0-.87-.43-1.1-1-1.1h-2.45v-2.4a.88.88,0,0,0-1.18-1l-1,.18a1.1,1.1,0,0,0-1,1.18v9.41a19.09,19.09,0,0,0,.13,2.1c.31,2.53,1.76,3.53,3.81,3.5a9,9,0,0,0,3-.54,1.2,1.2,0,0,0,.84-1.25v-.18C407.36,384.19,406.9,384,406.14,384.14Z" transform="translate(-263.13 -245)"/><path class="cls-5" d="M417.43,381.33a3.35,3.35,0,0,0,1.87-3.4c0-2.28-1.18-4-5.09-4-4.24,0-4.93,1.92-5.11,3.35a33.52,33.52,0,0,0-.13,3.48c0,.61,0,2,.13,3,.18,1.38.84,3.35,5.09,3.35a13,13,0,0,0,4.19-.64,1.26,1.26,0,0,0,.92-1.28V385c0-.79-.43-1.23-1.23-1.1a28.87,28.87,0,0,1-3.83.49c-1.38,0-1.79-.36-1.87-1.15a10.41,10.41,0,0,1-.1-1.3h.23A14.75,14.75,0,0,0,417.43,381.33Zm-5.16-1.76a11.77,11.77,0,0,1,.1-1.71c.08-.77.43-1.15,1.84-1.15,2,0,2.35.56,2.35,1.38,0,.54-.05,1-.74,1.25a13.57,13.57,0,0,1-3.35.23Z" transform="translate(-263.13 -245)"/><path class="cls-5" d="M429.24,374.15h-.31a4,4,0,0,0-3.6,2.17l-.13-1.07a1.11,1.11,0,0,0-1.1-1.1h-2.17c-.59,0-1,.23-1,1.1v.66c0,.87.43,1.07,1,1.07h.56v8.69c0,1,.46,1.25,1.43,1.25h.36c1,0,1.43-.25,1.43-1.25V379a3.81,3.81,0,0,1,3.12-2l.33-.05a1.16,1.16,0,0,0,1.23-1.33v-.23C430.39,374.38,430,374.15,429.24,374.15Z" transform="translate(-263.13 -245)"/><path class="cls-5" d="M438.11,379.59c-1.69-.64-3.12-1-3-1.89.05-.72.77-1,2.1-1a17.11,17.11,0,0,1,3,.43c1.2.18,1.51-.31,1.64-1.07s-.08-1.2-1-1.53a11.68,11.68,0,0,0-3.86-.61c-3.07,0-5,1.3-5,3.71,0,1.61.69,2.94,3.55,3.88.49.18.82.31,1.53.54,1.3.49,1.66.82,1.66,1.35s-.43.95-1.81.95a19,19,0,0,1-3.73-.49c-.74-.13-1.2.31-1.2,1.1v.23a1.29,1.29,0,0,0,.89,1.28,11.82,11.82,0,0,0,4.12.64c3,0,5.09-.84,5.09-3.55C442,381.54,440.8,380.54,438.11,379.59Z" transform="translate(-263.13 -245)"/><path class="cls-5" d="M449.34,376.88a10,10,0,0,1,2.2.23c1,.15,1.2-.33,1.25-1.23.05-.69.1-1.2-.84-1.53a7.32,7.32,0,0,0-2.61-.41c-4.24,0-5,1.92-5.11,3.35-.1.95-.13,2.38-.13,3.25s0,2.3.13,3.25c.15,1.43.87,3.35,5.11,3.35a7.34,7.34,0,0,0,2.61-.41c.95-.33.89-.84.84-1.53s-.26-1.23-1.25-1a11.9,11.9,0,0,1-2.2.23c-1.41,0-1.76-.38-1.84-1.15a18.78,18.78,0,0,1-.13-2.68,18.24,18.24,0,0,1,.13-2.53C447.57,377.27,447.93,376.88,449.34,376.88Z" transform="translate(-263.13 -245)"/><path class="cls-5" d="M461.55,373.94a4.52,4.52,0,0,0-3.22,1.28V370.8c0-1-.43-1.25-1.43-1.25h-.36c-1,0-1.43.26-1.43,1.25v14.88c0,1,.46,1.25,1.43,1.25h.36c1,0,1.43-.25,1.43-1.25v-7.82a2.66,2.66,0,0,1,2.15-1c1.2,0,1.53.46,1.64.84a9.88,9.88,0,0,1,.15,1.89l0,6.08c0,1,.43,1.25,1.43,1.25h.36c1,0,1.43-.25,1.43-1.25v-6.13a20.46,20.46,0,0,0-.1-2.22A3.48,3.48,0,0,0,461.55,373.94Z" transform="translate(-263.13 -245)"/><path class="cls-5" d="M478.4,383.86v-4.7c0-3-.49-5.21-5.26-5.21a11.77,11.77,0,0,0-3.14.38,1.25,1.25,0,0,0-1.07,1.41v.08c0,.77.28,1.18,1.33,1.1a9.87,9.87,0,0,1,2.07-.23,4,4,0,0,1,2,.38c.74.33.79.87.82,1.64v.64h-1.84c-3.45,0-5.5.82-5.5,3.94,0,2.58,1.46,3.86,4,3.86a4.61,4.61,0,0,0,3.78-1.66h.08l.28.77c.43,1,1.18,1.12,2.15.54.64-.36.82-.59.67-1.3Zm-3.25-2.15c0,2-.95,2.74-2.43,2.74-1.12,0-1.71-.33-1.71-1.46,0-.92.79-1.3,2.45-1.3h1.69Z" transform="translate(-263.13 -245)"/><path class="cls-5" d="M491.61,377.32a3.47,3.47,0,0,0-3.83-3.37,4.74,4.74,0,0,0-3.48,1.56l-.05-.66c-.08-1.1-1-.92-1.74-.79-1,.23-1.2.38-1.2,1.43v15.9c0,1,.46,1.25,1.43,1.25h.36c1,0,1.43-.26,1.43-1.25V386.8a9.82,9.82,0,0,0,2.48.33c3.76,0,4.45-1.92,4.6-3.35a28,28,0,0,0,.13-3.22v-1A15.94,15.94,0,0,0,491.61,377.32Zm-3.14,3.22a19.52,19.52,0,0,1-.1,2.53c-.08.74-.43,1.13-1.84,1.13-.54,0-1.28-.05-2-.1v-6.26a2.68,2.68,0,0,1,2.15-1c1.18,0,1.51.46,1.58.84a11.78,11.78,0,0,1,.18,2.25Z" transform="translate(-263.13 -245)"/><g id="_Groep_6" data-name="&lt;Groep&gt;"><path id="_Pad_9" data-name="&lt;Pad&gt;" class="cls-5" d="M312.3,386v-4.37a18.24,18.24,0,0,1,18.24-18.24h27.78a1,1,0,0,1,1,1v1.3a1,1,0,0,1-1,1H330.54a14.93,14.93,0,0,0-14.93,14.93V386a1,1,0,0,1-1,1h-1.3A1,1,0,0,1,312.3,386Z" transform="translate(-263.13 -245)"/></g></g></svg>