<svg xmlns="http://www.w3.org/2000/svg" xmlns:xlink="http://www.w3.org/1999/xlink" xmlns:inkscape="http://www.inkscape.org/namespaces/inkscape" version="1.1" width="451.56" height="451.56" viewBox="0 0 451.56 451.56">
<path transform="matrix(1,0,0,-1,225.781,225.77802)" d="M-22.68323-39.28719-8.30096-30.9862 0-45.36148 8.30096-30.9862 22.68323-39.28719 22.68523-22.68523 39.28719-22.68323 30.9862-8.30096 45.36148 0 30.9862 8.30096 39.28719 22.68323 22.68523 22.68523 22.68323 39.28719 8.30096 30.9862 0 45.36148-8.30096 30.9862-22.68323 39.28719-22.68523 22.68523-39.28719 22.68323-30.9862 8.30096-45.36148 0-30.9862-8.30096-39.28719-22.68323-22.68523-22.68523Z" fill="#f8ceda"/>
<path transform="matrix(1,0,0,-1,225.781,225.77802)" stroke-width=".3985" stroke-linecap="butt" stroke-miterlimit="10" stroke-linejoin="miter" fill="none" stroke="#000000" d="M-22.68323-39.28719-8.30096-30.9862 0-45.36148 8.30096-30.9862 22.68323-39.28719 22.68523-22.68523 39.28719-22.68323 30.9862-8.30096 45.36148 0 30.9862 8.30096 39.28719 22.68323 22.68523 22.68523 22.68323 39.28719 8.30096 30.9862 0 45.36148-8.30096 30.9862-22.68323 39.28719-22.68523 22.68523-39.28719 22.68323-30.9862 8.30096-45.36148 0-30.9862-8.30096-39.28719-22.68323-22.68523-22.68523Z"/>
<path transform="matrix(1,0,0,-1,225.781,225.77802)" d="M-22.68222-47.91592-22.67725-84.62973-4.31387-52.83255-11.03575-41.19406Z" fill="#d1bada"/>
<path transform="matrix(1,0,0,-1,225.781,225.77802)" stroke-width=".3985" stroke-linecap="butt" stroke-miterlimit="10" stroke-linejoin="miter" fill="none" stroke="#000000" d="M-22.68222-47.91592-22.67725-84.62973-4.31387-52.83255-11.03575-41.19406Z"/>
<path transform="matrix(1,0,0,-1,225.781,225.77802)" d="M-4.31387 52.83255-22.67725 84.62973-22.68222 47.91592-11.03674 41.19406Z" fill="#d1bada"/>
<path transform="matrix(1,0,0,-1,225.781,225.77802)" stroke-width=".3985" stroke-linecap="butt" stroke-miterlimit="10" stroke-linejoin="miter" fill="none" stroke="#000000" d="M-4.31387 52.83255-22.67725 84.62973-22.68222 47.91592-11.03674 41.19406Z"/>
<path transform="matrix(1,0,0,-1,225.781,225.77802)" d="M30.1553-43.60005 61.95148-61.95148 43.60005-30.1553 30.1573-30.1573Z" fill="#d1bada"/>
<path transform="matrix(1,0,0,-1,225.781,225.77802)" stroke-width=".3985" stroke-linecap="butt" stroke-miterlimit="10" stroke-linejoin="miter" fill="none" stroke="#000000" d="M30.1553-43.60005 61.95148-61.95148 43.60005-30.1553 30.1573-30.1573Z"/>
<path transform="matrix(1,0,0,-1,225.781,225.77802)" d="M-47.91592 22.68222-84.62973 22.67725-52.83255 4.31387-41.19406 11.03674Z" fill="#d1bada"/>
<path transform="matrix(1,0,0,-1,225.781,225.77802)" stroke-width=".3985" stroke-linecap="butt" stroke-miterlimit="10" stroke-linejoin="miter" fill="none" stroke="#000000" d="M-47.91592 22.68222-84.62973 22.67725-52.83255 4.31387-41.19406 11.03674Z"/>
<path transform="matrix(1,0,0,-1,225.781,225.77802)" d="M52.83255 4.31387 84.62973 22.67725 47.91592 22.68222 41.19406 11.03674Z" fill="#d1bada"/>
<path transform="matrix(1,0,0,-1,225.781,225.77802)" stroke-width=".3985" stroke-linecap="butt" stroke-miterlimit="10" stroke-linejoin="miter" fill="none" stroke="#000000" d="M52.83255 4.31387 84.62973 22.67725 47.91592 22.68222 41.19406 11.03674Z"/>
<path transform="matrix(1,0,0,-1,225.781,225.77802)" d="M-43.60005-30.1553-61.95148-61.95148-30.1553-43.60005-30.1573-30.1573Z" fill="#d1bada"/>
<path transform="matrix(1,0,0,-1,225.781,225.77802)" stroke-width=".3985" stroke-linecap="butt" stroke-miterlimit="10" stroke-linejoin="miter" fill="none" stroke="#000000" d="M-43.60005-30.1553-61.95148-61.95148-30.1553-43.60005-30.1573-30.1573Z"/>
<path transform="matrix(1,0,0,-1,225.781,225.77802)" d="M22.68222 47.91592 22.67725 84.62973 4.31387 52.83255 11.03674 41.19406Z" fill="#d1bada"/>
<path transform="matrix(1,0,0,-1,225.781,225.77802)" stroke-width=".3985" stroke-linecap="butt" stroke-miterlimit="10" stroke-linejoin="miter" fill="none" stroke="#000000" d="M22.68222 47.91592 22.67725 84.62973 4.31387 52.83255 11.03674 41.19406Z"/>
<path transform="matrix(1,0,0,-1,225.781,225.77802)" d="M4.31387-52.83255 22.67725-84.62973 22.68222-47.91592 11.03674-41.19406Z" fill="#d1bada"/>
<path transform="matrix(1,0,0,-1,225.781,225.77802)" stroke-width=".3985" stroke-linecap="butt" stroke-miterlimit="10" stroke-linejoin="miter" fill="none" stroke="#000000" d="M4.31387-52.83255 22.67725-84.62973 22.68222-47.91592 11.03674-41.19406Z"/>
<path transform="matrix(1,0,0,-1,225.781,225.77802)" d="M-30.1553 43.60005-61.95148 61.95148-43.60005 30.1553-30.1573 30.1573Z" fill="#d1bada"/>
<path transform="matrix(1,0,0,-1,225.781,225.77802)" stroke-width=".3985" stroke-linecap="butt" stroke-miterlimit="10" stroke-linejoin="miter" fill="none" stroke="#000000" d="M-30.1553 43.60005-61.95148 61.95148-43.60005 30.1553-30.1573 30.1573Z"/>
<path transform="matrix(1,0,0,-1,225.781,225.77802)" d="M47.91592-22.68222 84.62973-22.67725 52.83255-4.31387 41.19406-11.03575Z" fill="#d1bada"/>
<path transform="matrix(1,0,0,-1,225.781,225.77802)" stroke-width=".3985" stroke-linecap="butt" stroke-miterlimit="10" stroke-linejoin="miter" fill="none" stroke="#000000" d="M47.91592-22.68222 84.62973-22.67725 52.83255-4.31387 41.19406-11.03575Z"/>
<path transform="matrix(1,0,0,-1,225.781,225.77802)" d="M-52.83255-4.31387-84.62973-22.67725-47.91592-22.68222-41.19406-11.03674Z" fill="#d1bada"/>
<path transform="matrix(1,0,0,-1,225.781,225.77802)" stroke-width=".3985" stroke-linecap="butt" stroke-miterlimit="10" stroke-linejoin="miter" fill="none" stroke="#000000" d="M-52.83255-4.31387-84.62973-22.67725-47.91592-22.68222-41.19406-11.03674Z"/>
<path transform="matrix(1,0,0,-1,225.781,225.77802)" d="M43.60005 30.1553 61.95148 61.95148 30.1553 43.60005 30.1573 30.1573Z" fill="#d1bada"/>
<path transform="matrix(1,0,0,-1,225.781,225.77802)" stroke-width=".3985" stroke-linecap="butt" stroke-miterlimit="10" stroke-linejoin="miter" fill="none" stroke="#000000" d="M43.60005 30.1553 61.95148 61.95148 30.1553 43.60005 30.1573 30.1573Z"/>
<path transform="matrix(1,0,0,-1,225.781,225.77802)" d="M-30.14833-97.56738-30.1543-52.2288-69.42155-74.8941-86.17595-103.92163-69.58096-120.5186-46.9097-126.59192Z" fill="#a0d8ef"/>
<path transform="matrix(1,0,0,-1,225.781,225.77802)" stroke-width=".3985" stroke-linecap="butt" stroke-miterlimit="10" stroke-linejoin="miter" fill="none" stroke="#000000" d="M-30.14833-97.56738-30.1543-52.2288-69.42155-74.8941-86.17595-103.92163-69.58096-120.5186-46.9097-126.59192Z"/>
<path transform="matrix(1,0,0,-1,225.781,225.77802)" d="M-22.67525 99.56291 0 60.30264 22.67525 99.56291 22.67027 133.08464 0 139.16294-22.67027 133.08464Z" fill="#a0d8ef"/>
<path transform="matrix(1,0,0,-1,225.781,225.77802)" stroke-width=".3985" stroke-linecap="butt" stroke-miterlimit="10" stroke-linejoin="miter" fill="none" stroke="#000000" d="M-22.67525 99.56291 0 60.30264 22.67525 99.56291 22.67027 133.08464 0 139.16294-22.67027 133.08464Z"/>
<path transform="matrix(1,0,0,-1,225.781,225.77802)" d="M69.42155-74.8941 30.1543-52.2288 30.14833-97.56738 46.9097-126.59192 69.58096-120.5186 86.17595-103.92163Z" fill="#a0d8ef"/>
<path transform="matrix(1,0,0,-1,225.781,225.77802)" stroke-width=".3985" stroke-linecap="butt" stroke-miterlimit="10" stroke-linejoin="miter" fill="none" stroke="#000000" d="M69.42155-74.8941 30.1543-52.2288 30.14833-97.56738 46.9097-126.59192 69.58096-120.5186 86.17595-103.92163Z"/>
<path transform="matrix(1,0,0,-1,225.781,225.77802)" d="M-22.67525-99.56291-22.67027-133.08464 0-139.16294 22.67027-133.08464 22.67525-99.56291 0-60.30264Z" fill="#a0d8ef"/>
<path transform="matrix(1,0,0,-1,225.781,225.77802)" stroke-width=".3985" stroke-linecap="butt" stroke-miterlimit="10" stroke-linejoin="miter" fill="none" stroke="#000000" d="M-22.67525-99.56291-22.67027-133.08464 0-139.16294 22.67027-133.08464 22.67525-99.56291 0-60.30264Z"/>
<path transform="matrix(1,0,0,-1,225.781,225.77802)" d="M-97.56738 30.14833-52.2288 30.1543-74.8941 69.42155-103.92163 86.17595-120.5186 69.58096-126.59192 46.9097Z" fill="#a0d8ef"/>
<path transform="matrix(1,0,0,-1,225.781,225.77802)" stroke-width=".3985" stroke-linecap="butt" stroke-miterlimit="10" stroke-linejoin="miter" fill="none" stroke="#000000" d="M-97.56738 30.14833-52.2288 30.1543-74.8941 69.42155-103.92163 86.17595-120.5186 69.58096-126.59192 46.9097Z"/>
<path transform="matrix(1,0,0,-1,225.781,225.77802)" d="M-30.14833 97.56738-46.9097 126.59192-69.58096 120.5186-86.17595 103.92163-69.42155 74.8941-30.1543 52.2288Z" fill="#a0d8ef"/>
<path transform="matrix(1,0,0,-1,225.781,225.77802)" stroke-width=".3985" stroke-linecap="butt" stroke-miterlimit="10" stroke-linejoin="miter" fill="none" stroke="#000000" d="M-30.14833 97.56738-46.9097 126.59192-69.58096 120.5186-86.17595 103.92163-69.42155 74.8941-30.1543 52.2288Z"/>
<path transform="matrix(1,0,0,-1,225.781,225.77802)" d="M99.56291 22.67525 60.30264 0 99.56291-22.67525 133.08464-22.67027 139.16294 0 133.08464 22.67027Z" fill="#a0d8ef"/>
<path transform="matrix(1,0,0,-1,225.781,225.77802)" stroke-width=".3985" stroke-linecap="butt" stroke-miterlimit="10" stroke-linejoin="miter" fill="none" stroke="#000000" d="M99.56291 22.67525 60.30264 0 99.56291-22.67525 133.08464-22.67027 139.16294 0 133.08464 22.67027Z"/>
<path transform="matrix(1,0,0,-1,225.781,225.77802)" d="M74.8941-69.42155 103.92163-86.17595 120.5186-69.58096 126.59192-46.9097 97.56738-30.14833 52.2288-30.1543Z" fill="#a0d8ef"/>
<path transform="matrix(1,0,0,-1,225.781,225.77802)" stroke-width=".3985" stroke-linecap="butt" stroke-miterlimit="10" stroke-linejoin="miter" fill="none" stroke="#000000" d="M74.8941-69.42155 103.92163-86.17595 120.5186-69.58096 126.59192-46.9097 97.56738-30.14833 52.2288-30.1543Z"/>
<path transform="matrix(1,0,0,-1,225.781,225.77802)" d="M-74.8941-69.42155-52.2288-30.1543-97.56738-30.14833-126.59192-46.9097-120.5186-69.58096-103.92163-86.17595Z" fill="#a0d8ef"/>
<path transform="matrix(1,0,0,-1,225.781,225.77802)" stroke-width=".3985" stroke-linecap="butt" stroke-miterlimit="10" stroke-linejoin="miter" fill="none" stroke="#000000" d="M-74.8941-69.42155-52.2288-30.1543-97.56738-30.14833-126.59192-46.9097-120.5186-69.58096-103.92163-86.17595Z"/>
<path transform="matrix(1,0,0,-1,225.781,225.77802)" d="M-99.56291 22.67525-133.08464 22.67027-139.16294 0-133.08464-22.67027-99.56291-22.67525-60.30264 0Z" fill="#a0d8ef"/>
<path transform="matrix(1,0,0,-1,225.781,225.77802)" stroke-width=".3985" stroke-linecap="butt" stroke-miterlimit="10" stroke-linejoin="miter" fill="none" stroke="#000000" d="M-99.56291 22.67525-133.08464 22.67027-139.16294 0-133.08464-22.67027-99.56291-22.67525-60.30264 0Z"/>
<path transform="matrix(1,0,0,-1,225.781,225.77802)" d="M30.14833 97.56738 30.1543 52.2288 69.42155 74.8941 86.17595 103.92163 69.58096 120.5186 46.9097 126.59192Z" fill="#a0d8ef"/>
<path transform="matrix(1,0,0,-1,225.781,225.77802)" stroke-width=".3985" stroke-linecap="butt" stroke-miterlimit="10" stroke-linejoin="miter" fill="none" stroke="#000000" d="M30.14833 97.56738 30.1543 52.2288 69.42155 74.8941 86.17595 103.92163 69.58096 120.5186 46.9097 126.59192Z"/>
<path transform="matrix(1,0,0,-1,225.781,225.77802)" d="M97.56738 30.14833 126.59192 46.9097 120.5186 69.58096 103.92163 86.17595 74.8941 69.42155 52.2288 30.1543Z" fill="#a0d8ef"/>
<path transform="matrix(1,0,0,-1,225.781,225.77802)" stroke-width=".3985" stroke-linecap="butt" stroke-miterlimit="10" stroke-linejoin="miter" fill="none" stroke="#000000" d="M97.56738 30.14833 126.59192 46.9097 120.5186 69.58096 103.92163 86.17595 74.8941 69.42155 52.2288 30.1543Z"/>
<path transform="matrix(1,0,0,-1,225.781,225.77802)" d="M-116.65306-84.01103-109.75684-109.75684-84.01103-116.65306-95.51505-105.14705-82.36618-82.36618-105.14705-95.51505Z" fill="#68b7a1"/>
<path transform="matrix(1,0,0,-1,225.781,225.77802)" stroke-width=".3985" stroke-linecap="butt" stroke-miterlimit="10" stroke-linejoin="miter" fill="none" stroke="#000000" d="M-116.65306-84.01103-109.75684-109.75684-84.01103-116.65306-95.51505-105.14705-82.36618-82.36618-105.14705-95.51505Z"/>
<path transform="matrix(1,0,0,-1,225.781,225.77802)" d="M-82.36618 82.36618-95.51505 105.14705-84.01103 116.65306-109.75684 109.75684-116.65306 84.01103-105.14705 95.51505Z" fill="#68b7a1"/>
<path transform="matrix(1,0,0,-1,225.781,225.77802)" stroke-width=".3985" stroke-linecap="butt" stroke-miterlimit="10" stroke-linejoin="miter" fill="none" stroke="#000000" d="M-82.36618 82.36618-95.51505 105.14705-84.01103 116.65306-109.75684 109.75684-116.65306 84.01103-105.14705 95.51505Z"/>
<path transform="matrix(1,0,0,-1,225.781,225.77802)" d="M59.02043 131.08113 40.17188 149.93369 14.43504 143.03347 30.14235 138.8232 30.14633 112.49957 43.30815 135.28942Z" fill="#68b7a1"/>
<path transform="matrix(1,0,0,-1,225.781,225.77802)" stroke-width=".3985" stroke-linecap="butt" stroke-miterlimit="10" stroke-linejoin="miter" fill="none" stroke="#000000" d="M59.02043 131.08113 40.17188 149.93369 14.43504 143.03347 30.14235 138.8232 30.14633 112.49957 43.30815 135.28942Z"/>
<path transform="matrix(1,0,0,-1,225.781,225.77802)" d="M112.49957-30.14633 135.28942-43.30815 131.08113-59.02043 149.93369-40.17188 143.03347-14.43504 138.8242-30.14235Z" fill="#68b7a1"/>
<path transform="matrix(1,0,0,-1,225.781,225.77802)" stroke-width=".3985" stroke-linecap="butt" stroke-miterlimit="10" stroke-linejoin="miter" fill="none" stroke="#000000" d="M112.49957-30.14633 135.28942-43.30815 131.08113-59.02043 149.93369-40.17188 143.03347-14.43504 138.8242-30.14235Z"/>
<path transform="matrix(1,0,0,-1,225.781,225.77802)" d="M30.14235-138.8232 14.43504-143.03347 40.17188-149.93369 59.02043-131.08113 43.30815-135.28942 30.14633-112.49957Z" fill="#68b7a1"/>
<path transform="matrix(1,0,0,-1,225.781,225.77802)" stroke-width=".3985" stroke-linecap="butt" stroke-miterlimit="10" stroke-linejoin="miter" fill="none" stroke="#000000" d="M30.14235-138.8232 14.43504-143.03347 40.17188-149.93369 59.02043-131.08113 43.30815-135.28942 30.14633-112.49957Z"/>
<path transform="matrix(1,0,0,-1,225.781,225.77802)" d="M-112.49957-30.14633-138.8232-30.14235-143.03347-14.43504-149.93369-40.17188-131.08113-59.02043-135.28942-43.30815Z" fill="#68b7a1"/>
<path transform="matrix(1,0,0,-1,225.781,225.77802)" stroke-width=".3985" stroke-linecap="butt" stroke-miterlimit="10" stroke-linejoin="miter" fill="none" stroke="#000000" d="M-112.49957-30.14633-138.8232-30.14235-143.03347-14.43504-149.93369-40.17188-131.08113-59.02043-135.28942-43.30815Z"/>
<path transform="matrix(1,0,0,-1,225.781,225.77802)" d="M82.36618 82.36618 105.14705 95.51505 116.65306 84.01103 109.75684 109.75684 84.01103 116.65306 95.51505 105.14705Z" fill="#68b7a1"/>
<path transform="matrix(1,0,0,-1,225.781,225.77802)" stroke-width=".3985" stroke-linecap="butt" stroke-miterlimit="10" stroke-linejoin="miter" fill="none" stroke="#000000" d="M82.36618 82.36618 105.14705 95.51505 116.65306 84.01103 109.75684 109.75684 84.01103 116.65306 95.51505 105.14705Z"/>
<path transform="matrix(1,0,0,-1,225.781,225.77802)" d="M-30.14633-112.49957-43.30815-135.28942-59.02043-131.08113-40.17188-149.93369-14.43504-143.03347-30.14235-138.8242Z" fill="#68b7a1"/>
<path transform="matrix(1,0,0,-1,225.781,225.77802)" stroke-width=".3985" stroke-linecap="butt" stroke-miterlimit="10" stroke-linejoin="miter" fill="none" stroke="#000000" d="M-30.14633-112.49957-43.30815-135.28942-59.02043-131.08113-40.17188-149.93369-14.43504-143.03347-30.14235-138.8242Z"/>
<path transform="matrix(1,0,0,-1,225.781,225.77802)" d="M-30.14633 112.49957-30.14235 138.8232-14.43504 143.03347-40.17188 149.93369-59.02043 131.08113-43.30815 135.28942Z" fill="#68b7a1"/>
<path transform="matrix(1,0,0,-1,225.781,225.77802)" stroke-width=".3985" stroke-linecap="butt" stroke-miterlimit="10" stroke-linejoin="miter" fill="none" stroke="#000000" d="M-30.14633 112.49957-30.14235 138.8232-14.43504 143.03347-40.17188 149.93369-59.02043 131.08113-43.30815 135.28942Z"/>
<path transform="matrix(1,0,0,-1,225.781,225.77802)" d="M82.36618-82.36618 95.51505-105.14705 84.01103-116.65306 109.75684-109.75684 116.65306-84.01103 105.14705-95.51505Z" fill="#68b7a1"/>
<path transform="matrix(1,0,0,-1,225.781,225.77802)" stroke-width=".3985" stroke-linecap="butt" stroke-miterlimit="10" stroke-linejoin="miter" fill="none" stroke="#000000" d="M82.36618-82.36618 95.51505-105.14705 84.01103-116.65306 109.75684-109.75684 116.65306-84.01103 105.14705-95.51505Z"/>
<path transform="matrix(1,0,0,-1,225.781,225.77802)" d="M-112.49957 30.14633-135.28942 43.30815-131.08113 59.02043-149.93369 40.17188-143.03347 14.43504-138.8232 30.14235Z" fill="#68b7a1"/>
<path transform="matrix(1,0,0,-1,225.781,225.77802)" stroke-width=".3985" stroke-linecap="butt" stroke-miterlimit="10" stroke-linejoin="miter" fill="none" stroke="#000000" d="M-112.49957 30.14633-135.28942 43.30815-131.08113 59.02043-149.93369 40.17188-143.03347 14.43504-138.8232 30.14235Z"/>
<path transform="matrix(1,0,0,-1,225.781,225.77802)" d="M112.49957 30.14633 138.8232 30.14235 143.03347 14.43504 149.93369 40.17188 131.08113 59.02043 135.28942 43.30815Z" fill="#68b7a1"/>
<path transform="matrix(1,0,0,-1,225.781,225.77802)" stroke-width=".3985" stroke-linecap="butt" stroke-miterlimit="10" stroke-linejoin="miter" fill="none" stroke="#000000" d="M112.49957 30.14633 138.8232 30.14235 143.03347 14.43504 149.93369 40.17188 131.08113 59.02043 135.28942 43.30815Z"/>
<path transform="matrix(1,0,0,-1,225.781,225.77802)" d="M-118.09068-107.52417-127.21658-73.44951-152.16733-48.50275-164.6467-95.05278Z" fill="#d8e698"/>
<path transform="matrix(1,0,0,-1,225.781,225.77802)" stroke-width=".3985" stroke-linecap="butt" stroke-miterlimit="10" stroke-linejoin="miter" fill="none" stroke="#000000" d="M-118.09068-107.52417-127.21658-73.44951-152.16733-48.50275-164.6467-95.05278Z"/>
<path transform="matrix(1,0,0,-1,225.781,225.77802)" d="M48.50275 152.16733 73.44951 127.21658 107.52417 118.09068 95.05278 164.6467Z" fill="#d8e698"/>
<path transform="matrix(1,0,0,-1,225.781,225.77802)" stroke-width=".3985" stroke-linecap="butt" stroke-miterlimit="10" stroke-linejoin="miter" fill="none" stroke="#000000" d="M48.50275 152.16733 73.44951 127.21658 107.52417 118.09068 95.05278 164.6467Z"/>
<path transform="matrix(1,0,0,-1,225.781,225.77802)" d="M34.07266-156.03289 0-146.90201-34.07266-156.03289 0-190.11154Z" fill="#d8e698"/>
<path transform="matrix(1,0,0,-1,225.781,225.77802)" stroke-width=".3985" stroke-linecap="butt" stroke-miterlimit="10" stroke-linejoin="miter" fill="none" stroke="#000000" d="M34.07266-156.03289 0-146.90201-34.07266-156.03289 0-190.11154Z"/>
<path transform="matrix(1,0,0,-1,225.781,225.77802)" d="M-107.52417 118.09068-73.44951 127.21658-48.50275 152.16733-95.05278 164.6467Z" fill="#d8e698"/>
<path transform="matrix(1,0,0,-1,225.781,225.77802)" stroke-width=".3985" stroke-linecap="butt" stroke-miterlimit="10" stroke-linejoin="miter" fill="none" stroke="#000000" d="M-107.52417 118.09068-73.44951 127.21658-48.50275 152.16733-95.05278 164.6467Z"/>
<path transform="matrix(1,0,0,-1,225.781,225.77802)" d="M152.16733-48.50275 127.21658-73.44951 118.09068-107.52417 164.6467-95.05278Z" fill="#d8e698"/>
<path transform="matrix(1,0,0,-1,225.781,225.77802)" stroke-width=".3985" stroke-linecap="butt" stroke-miterlimit="10" stroke-linejoin="miter" fill="none" stroke="#000000" d="M152.16733-48.50275 127.21658-73.44951 118.09068-107.52417 164.6467-95.05278Z"/>
<path transform="matrix(1,0,0,-1,225.781,225.77802)" d="M-156.03289-34.07266-146.90201 0-156.03289 34.07266-190.11154 0Z" fill="#d8e698"/>
<path transform="matrix(1,0,0,-1,225.781,225.77802)" stroke-width=".3985" stroke-linecap="butt" stroke-miterlimit="10" stroke-linejoin="miter" fill="none" stroke="#000000" d="M-156.03289-34.07266-146.90201 0-156.03289 34.07266-190.11154 0Z"/>
<path transform="matrix(1,0,0,-1,225.781,225.77802)" d="M118.09068 107.52417 127.21658 73.44951 152.16733 48.50275 164.6467 95.05278Z" fill="#d8e698"/>
<path transform="matrix(1,0,0,-1,225.781,225.77802)" stroke-width=".3985" stroke-linecap="butt" stroke-miterlimit="10" stroke-linejoin="miter" fill="none" stroke="#000000" d="M118.09068 107.52417 127.21658 73.44951 152.16733 48.50275 164.6467 95.05278Z"/>
<path transform="matrix(1,0,0,-1,225.781,225.77802)" d="M-48.50275-152.16733-73.44951-127.21658-107.52417-118.09068-95.05278-164.6467Z" fill="#d8e698"/>
<path transform="matrix(1,0,0,-1,225.781,225.77802)" stroke-width=".3985" stroke-linecap="butt" stroke-miterlimit="10" stroke-linejoin="miter" fill="none" stroke="#000000" d="M-48.50275-152.16733-73.44951-127.21658-107.52417-118.09068-95.05278-164.6467Z"/>
<path transform="matrix(1,0,0,-1,225.781,225.77802)" d="M-118.09068 107.52417-164.6467 95.05278-152.16733 48.50275-127.21658 73.44951Z" fill="#d8e698"/>
<path transform="matrix(1,0,0,-1,225.781,225.77802)" stroke-width=".3985" stroke-linecap="butt" stroke-miterlimit="10" stroke-linejoin="miter" fill="none" stroke="#000000" d="M-118.09068 107.52417-164.6467 95.05278-152.16733 48.50275-127.21658 73.44951Z"/>
<path transform="matrix(1,0,0,-1,225.781,225.77802)" d="M-34.07266 156.03289 0 146.90201 34.07266 156.03289 0 190.11154Z" fill="#d8e698"/>
<path transform="matrix(1,0,0,-1,225.781,225.77802)" stroke-width=".3985" stroke-linecap="butt" stroke-miterlimit="10" stroke-linejoin="miter" fill="none" stroke="#000000" d="M-34.07266 156.03289 0 146.90201 34.07266 156.03289 0 190.11154Z"/>
<path transform="matrix(1,0,0,-1,225.781,225.77802)" d="M156.03289-34.07266 190.11154 0 156.03289 34.07266 146.90201 0Z" fill="#d8e698"/>
<path transform="matrix(1,0,0,-1,225.781,225.77802)" stroke-width=".3985" stroke-linecap="butt" stroke-miterlimit="10" stroke-linejoin="miter" fill="none" stroke="#000000" d="M156.03289-34.07266 190.11154 0 156.03289 34.07266 146.90201 0Z"/>
<path transform="matrix(1,0,0,-1,225.781,225.77802)" d="M107.52417-118.09068 73.44951-127.21658 48.50275-152.16733 95.05177-164.6467Z" fill="#d8e698"/>
<path transform="matrix(1,0,0,-1,225.781,225.77802)" stroke-width=".3985" stroke-linecap="butt" stroke-miterlimit="10" stroke-linejoin="miter" fill="none" stroke="#000000" d="M107.52417-118.09068 73.44951-127.21658 48.50275-152.16733 95.05177-164.6467Z"/>
<path transform="matrix(1,0,0,-1,225.781,225.77802)" d="M43.30815-135.28942 59.02043-131.08113 69.58096-120.5186 46.9097-126.59192 4.31387-52.83255 0-60.30264Z" fill="#ffffff"/>
<path transform="matrix(1,0,0,-1,225.781,225.77802)" stroke-width=".3985" stroke-linecap="butt" stroke-miterlimit="10" stroke-linejoin="miter" fill="none" stroke="#000000" d="M43.30815-135.28942 59.02043-131.08113 69.58096-120.5186 46.9097-126.59192 4.31387-52.83255 0-60.30264Z"/>
<path transform="matrix(1,0,0,-1,225.781,225.77802)" d="M-11.03575-41.19406-4.31387-52.83255 0-45.36148-8.30096-30.9862-61.95148-61.95148-69.42155-74.8941Z" fill="#ffffff"/>
<path transform="matrix(1,0,0,-1,225.781,225.77802)" stroke-width=".3985" stroke-linecap="butt" stroke-miterlimit="10" stroke-linejoin="miter" fill="none" stroke="#000000" d="M-11.03575-41.19406-4.31387-52.83255 0-45.36148-8.30096-30.9862-61.95148-61.95148-69.42155-74.8941Z"/>
<path transform="matrix(1,0,0,-1,225.781,225.77802)" d="M-105.14705-95.51505-82.36618-82.36618-74.8941-69.42155-103.92163-86.17595-149.93369-40.17188-152.16733-48.50275Z" fill="#ffffff"/>
<path transform="matrix(1,0,0,-1,225.781,225.77802)" stroke-width=".3985" stroke-linecap="butt" stroke-miterlimit="10" stroke-linejoin="miter" fill="none" stroke="#000000" d="M-105.14705-95.51505-82.36618-82.36618-74.8941-69.42155-103.92163-86.17595-149.93369-40.17188-152.16733-48.50275Z"/>
<path transform="matrix(1,0,0,-1,225.781,225.77802)" d="M-200.67804 0-158.26554-42.40453-156.03289-34.07266-190.11154 0-131.08113 59.02043-127.21658 73.44951Z" fill="#ffffff"/>
<path transform="matrix(1,0,0,-1,225.781,225.77802)" stroke-width=".3985" stroke-linecap="butt" stroke-miterlimit="10" stroke-linejoin="miter" fill="none" stroke="#000000" d="M-200.67804 0-158.26554-42.40453-156.03289-34.07266-190.11154 0-131.08113 59.02043-127.21658 73.44951Z"/>
<path transform="matrix(1,0,0,-1,225.781,225.77802)" d="M-105.14705 95.51505-116.65306 84.01103-120.5186 69.58096-103.92163 86.17595-30.1553 43.60005-30.1543 52.2288Z" fill="#ffffff"/>
<path transform="matrix(1,0,0,-1,225.781,225.77802)" stroke-width=".3985" stroke-linecap="butt" stroke-miterlimit="10" stroke-linejoin="miter" fill="none" stroke="#000000" d="M-105.14705 95.51505-116.65306 84.01103-120.5186 69.58096-103.92163 86.17595-30.1553 43.60005-30.1543 52.2288Z"/>
<path transform="matrix(1,0,0,-1,225.781,225.77802)" d="M-11.03674 41.19406-22.68222 47.91592-22.68323 39.28719-8.30096 30.9862 22.67725 84.62973 22.67525 99.56291Z" fill="#ffffff"/>
<path transform="matrix(1,0,0,-1,225.781,225.77802)" stroke-width=".3985" stroke-linecap="butt" stroke-miterlimit="10" stroke-linejoin="miter" fill="none" stroke="#000000" d="M-11.03674 41.19406-22.68222 47.91592-22.68323 39.28719-8.30096 30.9862 22.67725 84.62973 22.67525 99.56291Z"/>
<path transform="matrix(1,0,0,-1,225.781,225.77802)" d="M43.30815 135.28942 30.14633 112.49957 30.14833 97.56738 46.9097 126.59192 109.75684 109.75684 107.52417 118.09068Z" fill="#ffffff"/>
<path transform="matrix(1,0,0,-1,225.781,225.77802)" stroke-width=".3985" stroke-linecap="butt" stroke-miterlimit="10" stroke-linejoin="miter" fill="none" stroke="#000000" d="M43.30815 135.28942 30.14633 112.49957 30.14833 97.56738 46.9097 126.59192 109.75684 109.75684 107.52417 118.09068Z"/>
<path transform="matrix(1,0,0,-1,225.781,225.77802)" d="M173.79253 100.343 115.85902 115.85902 118.09068 107.52417 164.6467 95.05278 143.03347 14.43504 146.90201 0Z" fill="#ffffff"/>
<path transform="matrix(1,0,0,-1,225.781,225.77802)" stroke-width=".3985" stroke-linecap="butt" stroke-miterlimit="10" stroke-linejoin="miter" fill="none" stroke="#000000" d="M173.79253 100.343 115.85902 115.85902 118.09068 107.52417 164.6467 95.05278 143.03347 14.43504 146.90201 0Z"/>
<path transform="matrix(1,0,0,-1,225.781,225.77802)" d="M138.8242-30.14235 143.03347-14.43504 139.16294 0 133.08464-22.67027 47.91592-22.68222 52.2288-30.1543Z" fill="#ffffff"/>
<path transform="matrix(1,0,0,-1,225.781,225.77802)" stroke-width=".3985" stroke-linecap="butt" stroke-miterlimit="10" stroke-linejoin="miter" fill="none" stroke="#000000" d="M138.8242-30.14235 143.03347-14.43504 139.16294 0 133.08464-22.67027 47.91592-22.68222 52.2288-30.1543Z"/>
<path transform="matrix(1,0,0,-1,225.781,225.77802)" d="M30.1573-30.1573 43.60005-30.1553 39.28719-22.68323 22.68523-22.68523 22.67725-84.62973 30.14833-97.56738Z" fill="#ffffff"/>
<path transform="matrix(1,0,0,-1,225.781,225.77802)" stroke-width=".3985" stroke-linecap="butt" stroke-miterlimit="10" stroke-linejoin="miter" fill="none" stroke="#000000" d="M30.1573-30.1573 43.60005-30.1553 39.28719-22.68323 22.68523-22.68523 22.67725-84.62973 30.14833-97.56738Z"/>
<path transform="matrix(1,0,0,-1,225.781,225.77802)" d="M30.14235-138.8232 30.14633-112.49957 22.67525-99.56291 22.67027-133.08464-40.17188-149.93369-34.07266-156.03289Z" fill="#ffffff"/>
<path transform="matrix(1,0,0,-1,225.781,225.77802)" stroke-width=".3985" stroke-linecap="butt" stroke-miterlimit="10" stroke-linejoin="miter" fill="none" stroke="#000000" d="M30.14235-138.8232 30.14633-112.49957 22.67525-99.56291 22.67027-133.08464-40.17188-149.93369-34.07266-156.03289Z"/>
<path transform="matrix(1,0,0,-1,225.781,225.77802)" d="M-100.343-173.79253-42.40453-158.26554-48.50275-152.16733-95.05278-164.6467-116.65306-84.01103-127.21658-73.44951Z" fill="#ffffff"/>
<path transform="matrix(1,0,0,-1,225.781,225.77802)" stroke-width=".3985" stroke-linecap="butt" stroke-miterlimit="10" stroke-linejoin="miter" fill="none" stroke="#000000" d="M-100.343-173.79253-42.40453-158.26554-48.50275-152.16733-95.05278-164.6467-116.65306-84.01103-127.21658-73.44951Z"/>
<path transform="matrix(1,0,0,-1,225.781,225.77802)" d="M-135.28942-43.30815-131.08113-59.02043-120.5186-69.58096-126.59192-46.9097-52.83255-4.31387-60.30264 0Z" fill="#ffffff"/>
<path transform="matrix(1,0,0,-1,225.781,225.77802)" stroke-width=".3985" stroke-linecap="butt" stroke-miterlimit="10" stroke-linejoin="miter" fill="none" stroke="#000000" d="M-135.28942-43.30815-131.08113-59.02043-120.5186-69.58096-126.59192-46.9097-52.83255-4.31387-60.30264 0Z"/>
<path transform="matrix(1,0,0,-1,225.781,225.77802)" d="M-41.19406 11.03674-52.83255 4.31387-45.36148 0-30.9862 8.30096-61.95148 61.95148-74.8941 69.42155Z" fill="#ffffff"/>
<path transform="matrix(1,0,0,-1,225.781,225.77802)" stroke-width=".3985" stroke-linecap="butt" stroke-miterlimit="10" stroke-linejoin="miter" fill="none" stroke="#000000" d="M-41.19406 11.03674-52.83255 4.31387-45.36148 0-30.9862 8.30096-61.95148 61.95148-74.8941 69.42155Z"/>
<path transform="matrix(1,0,0,-1,225.781,225.77802)" d="M-95.51505 105.14705-82.36618 82.36618-69.42155 74.8941-86.17595 103.92163-40.17188 149.93369-48.50275 152.16733Z" fill="#ffffff"/>
<path transform="matrix(1,0,0,-1,225.781,225.77802)" stroke-width=".3985" stroke-linecap="butt" stroke-miterlimit="10" stroke-linejoin="miter" fill="none" stroke="#000000" d="M-95.51505 105.14705-82.36618 82.36618-69.42155 74.8941-86.17595 103.92163-40.17188 149.93369-48.50275 152.16733Z"/>
<path transform="matrix(1,0,0,-1,225.781,225.77802)" d="M0 200.67804-42.40453 158.26554-34.07266 156.03289 0 190.11154 59.02043 131.08113 73.44951 127.21658Z" fill="#ffffff"/>
<path transform="matrix(1,0,0,-1,225.781,225.77802)" stroke-width=".3985" stroke-linecap="butt" stroke-miterlimit="10" stroke-linejoin="miter" fill="none" stroke="#000000" d="M0 200.67804-42.40453 158.26554-34.07266 156.03289 0 190.11154 59.02043 131.08113 73.44951 127.21658Z"/>
<path transform="matrix(1,0,0,-1,225.781,225.77802)" d="M95.51505 105.14705 84.01103 116.65306 69.58096 120.5186 86.17595 103.92163 43.60005 30.1553 52.2288 30.1543Z" fill="#ffffff"/>
<path transform="matrix(1,0,0,-1,225.781,225.77802)" stroke-width=".3985" stroke-linecap="butt" stroke-miterlimit="10" stroke-linejoin="miter" fill="none" stroke="#000000" d="M95.51505 105.14705 84.01103 116.65306 69.58096 120.5186 86.17595 103.92163 43.60005 30.1553 52.2288 30.1543Z"/>
<path transform="matrix(1,0,0,-1,225.781,225.77802)" d="M41.19406 11.03674 47.91592 22.68222 39.28719 22.68323 30.9862 8.30096 84.62973-22.67725 99.56291-22.67525Z" fill="#ffffff"/>
<path transform="matrix(1,0,0,-1,225.781,225.77802)" stroke-width=".3985" stroke-linecap="butt" stroke-miterlimit="10" stroke-linejoin="miter" fill="none" stroke="#000000" d="M41.19406 11.03674 47.91592 22.68222 39.28719 22.68323 30.9862 8.30096 84.62973-22.67725 99.56291-22.67525Z"/>
<path transform="matrix(1,0,0,-1,225.781,225.77802)" d="M135.28942-43.30815 112.49957-30.14633 97.56738-30.14833 126.59192-46.9097 109.75684-109.75684 118.09068-107.52417Z" fill="#ffffff"/>
<path transform="matrix(1,0,0,-1,225.781,225.77802)" stroke-width=".3985" stroke-linecap="butt" stroke-miterlimit="10" stroke-linejoin="miter" fill="none" stroke="#000000" d="M135.28942-43.30815 112.49957-30.14633 97.56738-30.14833 126.59192-46.9097 109.75684-109.75684 118.09068-107.52417Z"/>
<path transform="matrix(1,0,0,-1,225.781,225.77802)" d="M100.343-173.79253 115.85902-115.85902 107.52417-118.09068 95.05177-164.6467 14.43504-143.03347 0-146.90201Z" fill="#ffffff"/>
<path transform="matrix(1,0,0,-1,225.781,225.77802)" stroke-width=".3985" stroke-linecap="butt" stroke-miterlimit="10" stroke-linejoin="miter" fill="none" stroke="#000000" d="M100.343-173.79253 115.85902-115.85902 107.52417-118.09068 95.05177-164.6467 14.43504-143.03347 0-146.90201Z"/>
<path transform="matrix(1,0,0,-1,225.781,225.77802)" d="M-30.14235-138.8242-14.43504-143.03347 0-139.16294-22.67027-133.08464-22.68222-47.91592-30.1543-52.2288Z" fill="#ffffff"/>
<path transform="matrix(1,0,0,-1,225.781,225.77802)" stroke-width=".3985" stroke-linecap="butt" stroke-miterlimit="10" stroke-linejoin="miter" fill="none" stroke="#000000" d="M-30.14235-138.8242-14.43504-143.03347 0-139.16294-22.67027-133.08464-22.68222-47.91592-30.1543-52.2288Z"/>
<path transform="matrix(1,0,0,-1,225.781,225.77802)" d="M-30.1573-30.1573-30.1553-43.60005-22.68323-39.28719-22.68523-22.68523-84.62973-22.67725-97.56738-30.14833Z" fill="#ffffff"/>
<path transform="matrix(1,0,0,-1,225.781,225.77802)" stroke-width=".3985" stroke-linecap="butt" stroke-miterlimit="10" stroke-linejoin="miter" fill="none" stroke="#000000" d="M-30.1573-30.1573-30.1553-43.60005-22.68323-39.28719-22.68523-22.68523-84.62973-22.67725-97.56738-30.14833Z"/>
<path transform="matrix(1,0,0,-1,225.781,225.77802)" d="M-138.8232-30.14235-112.49957-30.14633-99.56291-22.67525-133.08464-22.67027-149.93369 40.17188-156.03289 34.07266Z" fill="#ffffff"/>
<path transform="matrix(1,0,0,-1,225.781,225.77802)" stroke-width=".3985" stroke-linecap="butt" stroke-miterlimit="10" stroke-linejoin="miter" fill="none" stroke="#000000" d="M-138.8232-30.14235-112.49957-30.14633-99.56291-22.67525-133.08464-22.67027-149.93369 40.17188-156.03289 34.07266Z"/>
<path transform="matrix(1,0,0,-1,225.781,225.77802)" d="M-173.79253 100.343-158.26554 42.40453-152.16733 48.50275-164.6467 95.05278-84.01103 116.65306-73.44951 127.21658Z" fill="#ffffff"/>
<path transform="matrix(1,0,0,-1,225.781,225.77802)" stroke-width=".3985" stroke-linecap="butt" stroke-miterlimit="10" stroke-linejoin="miter" fill="none" stroke="#000000" d="M-173.79253 100.343-158.26554 42.40453-152.16733 48.50275-164.6467 95.05278-84.01103 116.65306-73.44951 127.21658Z"/>
<path transform="matrix(1,0,0,-1,225.781,225.77802)" d="M-43.30815 135.28942-59.02043 131.08113-69.58096 120.5186-46.9097 126.59192-4.31387 52.83255 0 60.30264Z" fill="#ffffff"/>
<path transform="matrix(1,0,0,-1,225.781,225.77802)" stroke-width=".3985" stroke-linecap="butt" stroke-miterlimit="10" stroke-linejoin="miter" fill="none" stroke="#000000" d="M-43.30815 135.28942-59.02043 131.08113-69.58096 120.5186-46.9097 126.59192-4.31387 52.83255 0 60.30264Z"/>
<path transform="matrix(1,0,0,-1,225.781,225.77802)" d="M11.03674 41.19406 4.31387 52.83255 0 45.36148 8.30096 30.9862 61.95148 61.95148 69.42155 74.8941Z" fill="#ffffff"/>
<path transform="matrix(1,0,0,-1,225.781,225.77802)" stroke-width=".3985" stroke-linecap="butt" stroke-miterlimit="10" stroke-linejoin="miter" fill="none" stroke="#000000" d="M11.03674 41.19406 4.31387 52.83255 0 45.36148 8.30096 30.9862 61.95148 61.95148 69.42155 74.8941Z"/>
<path transform="matrix(1,0,0,-1,225.781,225.77802)" d="M105.14705 95.51505 82.36618 82.36618 74.8941 69.42155 103.92163 86.17595 149.93369 40.17188 152.16733 48.50275Z" fill="#ffffff"/>
<path transform="matrix(1,0,0,-1,225.781,225.77802)" stroke-width=".3985" stroke-linecap="butt" stroke-miterlimit="10" stroke-linejoin="miter" fill="none" stroke="#000000" d="M105.14705 95.51505 82.36618 82.36618 74.8941 69.42155 103.92163 86.17595 149.93369 40.17188 152.16733 48.50275Z"/>
<path transform="matrix(1,0,0,-1,225.781,225.77802)" d="M200.67804 0 158.26554 42.40453 156.03289 34.07266 190.11154 0 131.08113-59.02043 127.21658-73.44951Z" fill="#ffffff"/>
<path transform="matrix(1,0,0,-1,225.781,225.77802)" stroke-width=".3985" stroke-linecap="butt" stroke-miterlimit="10" stroke-linejoin="miter" fill="none" stroke="#000000" d="M200.67804 0 158.26554 42.40453 156.03289 34.07266 190.11154 0 131.08113-59.02043 127.21658-73.44951Z"/>
<path transform="matrix(1,0,0,-1,225.781,225.77802)" d="M105.14705-95.51505 116.65306-84.01103 120.5186-69.58096 103.92163-86.17595 30.1553-43.60005 30.1543-52.2288Z" fill="#ffffff"/>
<path transform="matrix(1,0,0,-1,225.781,225.77802)" stroke-width=".3985" stroke-linecap="butt" stroke-miterlimit="10" stroke-linejoin="miter" fill="none" stroke="#000000" d="M105.14705-95.51505 116.65306-84.01103 120.5186-69.58096 103.92163-86.17595 30.1553-43.60005 30.1543-52.2288Z"/>
<path transform="matrix(1,0,0,-1,225.781,225.77802)" d="M11.03674-41.19406 22.68222-47.91592 22.68323-39.28719 8.30096-30.9862-22.67725-84.62973-22.67525-99.56291Z" fill="#ffffff"/>
<path transform="matrix(1,0,0,-1,225.781,225.77802)" stroke-width=".3985" stroke-linecap="butt" stroke-miterlimit="10" stroke-linejoin="miter" fill="none" stroke="#000000" d="M11.03674-41.19406 22.68222-47.91592 22.68323-39.28719 8.30096-30.9862-22.67725-84.62973-22.67525-99.56291Z"/>
<path transform="matrix(1,0,0,-1,225.781,225.77802)" d="M-43.30815-135.28942-30.14633-112.49957-30.14833-97.56738-46.9097-126.59192-109.75684-109.75684-107.52417-118.09068Z" fill="#ffffff"/>
<path transform="matrix(1,0,0,-1,225.781,225.77802)" stroke-width=".3985" stroke-linecap="butt" stroke-miterlimit="10" stroke-linejoin="miter" fill="none" stroke="#000000" d="M-43.30815-135.28942-30.14633-112.49957-30.14833-97.56738-46.9097-126.59192-109.75684-109.75684-107.52417-118.09068Z"/>
<path transform="matrix(1,0,0,-1,225.781,225.77802)" d="M-173.79253-100.343-115.85902-115.85902-118.09068-107.52417-164.6467-95.05278-143.03347-14.43504-146.90201 0Z" fill="#ffffff"/>
<path transform="matrix(1,0,0,-1,225.781,225.77802)" stroke-width=".3985" stroke-linecap="butt" stroke-miterlimit="10" stroke-linejoin="miter" fill="none" stroke="#000000" d="M-173.79253-100.343-115.85902-115.85902-118.09068-107.52417-164.6467-95.05278-143.03347-14.43504-146.90201 0Z"/>
<path transform="matrix(1,0,0,-1,225.781,225.77802)" d="M-138.8232 30.14235-143.03347 14.43504-139.16294 0-133.08464 22.67027-47.91592 22.68222-52.2288 30.1543Z" fill="#ffffff"/>
<path transform="matrix(1,0,0,-1,225.781,225.77802)" stroke-width=".3985" stroke-linecap="butt" stroke-miterlimit="10" stroke-linejoin="miter" fill="none" stroke="#000000" d="M-138.8232 30.14235-143.03347 14.43504-139.16294 0-133.08464 22.67027-47.91592 22.68222-52.2288 30.1543Z"/>
<path transform="matrix(1,0,0,-1,225.781,225.77802)" d="M-30.1573 30.1573-43.60005 30.1553-39.28719 22.68323-22.68523 22.68523-22.67725 84.62973-30.14833 97.56738Z" fill="#ffffff"/>
<path transform="matrix(1,0,0,-1,225.781,225.77802)" stroke-width=".3985" stroke-linecap="butt" stroke-miterlimit="10" stroke-linejoin="miter" fill="none" stroke="#000000" d="M-30.1573 30.1573-43.60005 30.1553-39.28719 22.68323-22.68523 22.68523-22.67725 84.62973-30.14833 97.56738Z"/>
<path transform="matrix(1,0,0,-1,225.781,225.77802)" d="M-30.14235 138.8232-30.14633 112.49957-22.67525 99.56291-22.67027 133.08464 40.17188 149.93369 34.07266 156.03289Z" fill="#ffffff"/>
<path transform="matrix(1,0,0,-1,225.781,225.77802)" stroke-width=".3985" stroke-linecap="butt" stroke-miterlimit="10" stroke-linejoin="miter" fill="none" stroke="#000000" d="M-30.14235 138.8232-30.14633 112.49957-22.67525 99.56291-22.67027 133.08464 40.17188 149.93369 34.07266 156.03289Z"/>
<path transform="matrix(1,0,0,-1,225.781,225.77802)" d="M100.343 173.79253 42.40453 158.26554 48.50275 152.16733 95.05278 164.6467 116.65306 84.01103 127.21658 73.44951Z" fill="#ffffff"/>
<path transform="matrix(1,0,0,-1,225.781,225.77802)" stroke-width=".3985" stroke-linecap="butt" stroke-miterlimit="10" stroke-linejoin="miter" fill="none" stroke="#000000" d="M100.343 173.79253 42.40453 158.26554 48.50275 152.16733 95.05278 164.6467 116.65306 84.01103 127.21658 73.44951Z"/>
<path transform="matrix(1,0,0,-1,225.781,225.77802)" d="M135.28942 43.30815 131.08113 59.02043 120.5186 69.58096 126.59192 46.9097 52.83255 4.31387 60.30264 0Z" fill="#ffffff"/>
<path transform="matrix(1,0,0,-1,225.781,225.77802)" stroke-width=".3985" stroke-linecap="butt" stroke-miterlimit="10" stroke-linejoin="miter" fill="none" stroke="#000000" d="M135.28942 43.30815 131.08113 59.02043 120.5186 69.58096 126.59192 46.9097 52.83255 4.31387 60.30264 0Z"/>
<path transform="matrix(1,0,0,-1,225.781,225.77802)" d="M41.19406-11.03575 52.83255-4.31387 45.36148 0 30.9862-8.30096 61.95148-61.95148 74.8941-69.42155Z" fill="#ffffff"/>
<path transform="matrix(1,0,0,-1,225.781,225.77802)" stroke-width=".3985" stroke-linecap="butt" stroke-miterlimit="10" stroke-linejoin="miter" fill="none" stroke="#000000" d="M41.19406-11.03575 52.83255-4.31387 45.36148 0 30.9862-8.30096 61.95148-61.95148 74.8941-69.42155Z"/>
<path transform="matrix(1,0,0,-1,225.781,225.77802)" d="M95.51505-105.14705 82.36618-82.36618 69.42155-74.8941 86.17595-103.92163 40.17188-149.93369 48.50275-152.16733Z" fill="#ffffff"/>
<path transform="matrix(1,0,0,-1,225.781,225.77802)" stroke-width=".3985" stroke-linecap="butt" stroke-miterlimit="10" stroke-linejoin="miter" fill="none" stroke="#000000" d="M95.51505-105.14705 82.36618-82.36618 69.42155-74.8941 86.17595-103.92163 40.17188-149.93369 48.50275-152.16733Z"/>
<path transform="matrix(1,0,0,-1,225.781,225.77802)" d="M0-200.67804 42.40453-158.26554 34.07266-156.03289 0-190.11154-59.02043-131.08113-73.44951-127.21658Z" fill="#ffffff"/>
<path transform="matrix(1,0,0,-1,225.781,225.77802)" stroke-width=".3985" stroke-linecap="butt" stroke-miterlimit="10" stroke-linejoin="miter" fill="none" stroke="#000000" d="M0-200.67804 42.40453-158.26554 34.07266-156.03289 0-190.11154-59.02043-131.08113-73.44951-127.21658Z"/>
<path transform="matrix(1,0,0,-1,225.781,225.77802)" d="M-95.51505-105.14705-84.01103-116.65306-69.58096-120.5186-86.17595-103.92163-43.60005-30.1553-52.2288-30.1543Z" fill="#ffffff"/>
<path transform="matrix(1,0,0,-1,225.781,225.77802)" stroke-width=".3985" stroke-linecap="butt" stroke-miterlimit="10" stroke-linejoin="miter" fill="none" stroke="#000000" d="M-95.51505-105.14705-84.01103-116.65306-69.58096-120.5186-86.17595-103.92163-43.60005-30.1553-52.2288-30.1543Z"/>
<path transform="matrix(1,0,0,-1,225.781,225.77802)" d="M-41.19406-11.03674-47.91592-22.68222-39.28719-22.68323-30.9862-8.30096-84.62973 22.67725-99.56291 22.67525Z" fill="#ffffff"/>
<path transform="matrix(1,0,0,-1,225.781,225.77802)" stroke-width=".3985" stroke-linecap="butt" stroke-miterlimit="10" stroke-linejoin="miter" fill="none" stroke="#000000" d="M-41.19406-11.03674-47.91592-22.68222-39.28719-22.68323-30.9862-8.30096-84.62973 22.67725-99.56291 22.67525Z"/>
<path transform="matrix(1,0,0,-1,225.781,225.77802)" d="M-135.28942 43.30815-112.49957 30.14633-97.56738 30.14833-126.59192 46.9097-109.75684 109.75684-118.09068 107.52417Z" fill="#ffffff"/>
<path transform="matrix(1,0,0,-1,225.781,225.77802)" stroke-width=".3985" stroke-linecap="butt" stroke-miterlimit="10" stroke-linejoin="miter" fill="none" stroke="#000000" d="M-135.28942 43.30815-112.49957 30.14633-97.56738 30.14833-126.59192 46.9097-109.75684 109.75684-118.09068 107.52417Z"/>
<path transform="matrix(1,0,0,-1,225.781,225.77802)" d="M-100.343 173.79253-115.85902 115.85902-107.52417 118.09068-95.05278 164.6467-14.43504 143.03347 0 146.90201Z" fill="#ffffff"/>
<path transform="matrix(1,0,0,-1,225.781,225.77802)" stroke-width=".3985" stroke-linecap="butt" stroke-miterlimit="10" stroke-linejoin="miter" fill="none" stroke="#000000" d="M-100.343 173.79253-115.85902 115.85902-107.52417 118.09068-95.05278 164.6467-14.43504 143.03347 0 146.90201Z"/>
<path transform="matrix(1,0,0,-1,225.781,225.77802)" d="M30.14235 138.8232 14.43504 143.03347 0 139.16294 22.67027 133.08464 22.68222 47.91592 30.1543 52.2288Z" fill="#ffffff"/>
<path transform="matrix(1,0,0,-1,225.781,225.77802)" stroke-width=".3985" stroke-linecap="butt" stroke-miterlimit="10" stroke-linejoin="miter" fill="none" stroke="#000000" d="M30.14235 138.8232 14.43504 143.03347 0 139.16294 22.67027 133.08464 22.68222 47.91592 30.1543 52.2288Z"/>
<path transform="matrix(1,0,0,-1,225.781,225.77802)" d="M30.1573 30.1573 30.1553 43.60005 22.68323 39.28719 22.68523 22.68523 84.62973 22.67725 97.56738 30.14833Z" fill="#ffffff"/>
<path transform="matrix(1,0,0,-1,225.781,225.77802)" stroke-width=".3985" stroke-linecap="butt" stroke-miterlimit="10" stroke-linejoin="miter" fill="none" stroke="#000000" d="M30.1573 30.1573 30.1553 43.60005 22.68323 39.28719 22.68523 22.68523 84.62973 22.67725 97.56738 30.14833Z"/>
<path transform="matrix(1,0,0,-1,225.781,225.77802)" d="M138.8232 30.14235 112.49957 30.14633 99.56291 22.67525 133.08464 22.67027 149.93369-40.17188 156.03289-34.07266Z" fill="#ffffff"/>
<path transform="matrix(1,0,0,-1,225.781,225.77802)" stroke-width=".3985" stroke-linecap="butt" stroke-miterlimit="10" stroke-linejoin="miter" fill="none" stroke="#000000" d="M138.8232 30.14235 112.49957 30.14633 99.56291 22.67525 133.08464 22.67027 149.93369-40.17188 156.03289-34.07266Z"/>
<path transform="matrix(1,0,0,-1,225.781,225.77802)" d="M173.79253-100.343 158.26554-42.40453 152.16733-48.50275 164.6467-95.05278 84.01103-116.65306 73.44951-127.21658Z" fill="#ffffff"/>
<path transform="matrix(1,0,0,-1,225.781,225.77802)" stroke-width=".3985" stroke-linecap="butt" stroke-miterlimit="10" stroke-linejoin="miter" fill="none" stroke="#000000" d="M173.79253-100.343 158.26554-42.40453 152.16733-48.50275 164.6467-95.05278 84.01103-116.65306 73.44951-127.21658Z"/>
</svg>
